<?xml version="1.0" encoding="UTF-8"?>
<svg id="_レイヤー_1" data-name="レイヤー 1" xmlns="http://www.w3.org/2000/svg" viewBox="0 0 213.38 203.31">
  <defs>
    <style>
      .cls-1 {
        fill: #848484;
      }
    </style>
  </defs>
  <path class="cls-1" d="M20,21.63C8.96,21.63,0,30.6,0,41.64,0,47.93,2.95,53.85,8,57.64l90.69,68.02c4.75,3.54,11.25,3.54,16,0l90.69-68.02c5.04-3.79,8-9.71,8-16,0-11.04-8.96-20.01-20.01-20.01H20ZM0,68.31v86.69c0,14.71,11.96,26.67,26.67,26.67h160.04c14.71,0,26.67-11.96,26.67-26.67v-86.69l-90.69,68.02c-9.5,7.13-22.51,7.13-32.01,0L0,68.31Z"/>
</svg>
